<svg width="20" height="20" viewBox="0 0 20 20" fill="none" xmlns="http://www.w3.org/2000/svg">
<path d="M6.11174 4.95469C6.32134 4.27012 7.29086 4.27009 7.50041 4.95469L8.57268 8.4625C8.634 8.66284 8.77892 8.82704 8.97014 8.9127L12.224 10.3697C12.7962 10.626 12.796 11.4384 12.224 11.6949L8.97014 13.1529C8.7789 13.2386 8.63399 13.4028 8.57268 13.6031L7.50041 17.1109C7.29082 17.7955 6.32137 17.7954 6.11174 17.1109L5.03947 13.6031C4.97817 13.4027 4.83327 13.2386 4.64201 13.1529L1.38811 11.6949C0.816004 11.4385 0.815883 10.626 1.38811 10.3697L4.64201 8.9127C4.83325 8.82704 4.97816 8.66286 5.03947 8.4625L6.11174 4.95469Z" fill="#F5F5F5"/>
<path d="M14.7914 2.2916C14.9171 1.88067 15.4998 1.88065 15.6254 2.2916L16.268 4.3961C16.3047 4.51628 16.3916 4.61516 16.5063 4.6666L18.4594 5.54063C18.8025 5.69446 18.8023 6.18156 18.4594 6.33555L16.5063 7.21055C16.3917 7.26201 16.3047 7.36091 16.268 7.48106L15.6254 9.58457C15.4998 9.99559 14.9171 9.99559 14.7914 9.58457L14.1488 7.48106C14.1121 7.36078 14.0244 7.26196 13.9096 7.21055L11.9574 6.33555C11.6144 6.18159 11.6143 5.69443 11.9574 5.54063L13.9096 4.6666C14.0244 4.61519 14.1121 4.51637 14.1488 4.3961L14.7914 2.2916Z" fill="#F5F5F5"/>
</svg>
