<svg width="30" height="30" viewBox="0 0 30 30" fill="none" xmlns="http://www.w3.org/2000/svg">
<path d="M14.6758 7.6967C15.0663 7.30618 15.6993 7.30618 16.0898 7.6967C16.4803 8.08723 16.4804 8.72026 16.0898 9.11076L10.7969 14.4037H22.3828C22.9351 14.4037 23.3828 14.8514 23.3828 15.4037C23.3828 15.956 22.9351 16.4037 22.3828 16.4037H10.7969L16.0898 21.6967C16.4803 22.0872 16.4804 22.7203 16.0898 23.1108C15.6993 23.5012 15.0663 23.5012 14.6758 23.1108L7.67578 16.1108C7.64465 16.0796 7.61699 16.0461 7.59082 16.0121C7.57704 15.9942 7.56334 15.9763 7.55078 15.9574C7.52477 15.9185 7.50237 15.8779 7.48242 15.8364C7.46048 15.7908 7.44069 15.7438 7.42578 15.6947C7.42071 15.678 7.41726 15.6609 7.41309 15.644C7.39406 15.5669 7.38282 15.4866 7.38281 15.4037C7.38281 15.3241 7.39255 15.2466 7.41016 15.1723C7.41502 15.1517 7.4196 15.131 7.42578 15.1108C7.44068 15.062 7.46058 15.0154 7.48242 14.9701C7.50251 14.9284 7.52457 14.8872 7.55078 14.8481C7.58731 14.7935 7.6295 14.743 7.67578 14.6967L14.6758 7.6967Z" fill="#F5F5F5"/>
</svg>
