<svg width="40" height="41" viewBox="0 0 40 41" fill="none" xmlns="http://www.w3.org/2000/svg">
<g clip-path="url(#clip0_273_2370)">
<circle cx="20" cy="20.5" r="20" fill="rgba(255,255,255,0.1)"/>
<path d="M8.86362 24.5522L12.6738 15.7323C12.8773 15.2614 13.3411 14.9565 13.8541 14.9565H16.1711C16.6894 14.9565 17.1571 14.6452 17.3572 14.1671L18.7476 10.8441C18.9477 10.3659 19.4154 10.0547 19.9337 10.0547H25.6239C25.8535 10.0547 26.0091 10.2886 25.9203 10.5004L24.3486 14.2483C24.1483 14.726 23.6809 15.0368 23.1629 15.0368H18.3126C17.6025 15.0368 17.0268 15.6125 17.0268 16.3225V21.9475C17.0268 22.6576 17.6025 23.2333 18.3126 23.2333H21.4244C21.6815 23.2333 21.9139 23.08 22.0152 22.8436L22.4786 21.7625C22.6812 21.2898 23.146 20.9833 23.6603 20.9833H29.2363C29.4669 20.9833 29.6225 21.219 29.5319 21.431L25.5477 30.7524C25.4971 30.8708 25.3809 30.9475 25.2522 30.9475H17.4698C16.957 30.9475 16.4933 30.6428 16.2897 30.1721L14.3889 25.7765C14.1854 25.3058 13.7216 25.0011 13.2088 25.0011H9.15869C8.92753 25.0011 8.77195 24.7644 8.86362 24.5522Z" fill="#A1A6AA"/>
</g>
<defs>
<clipPath id="clip0_273_2370">
<rect width="40" height="40" fill="white" transform="translate(0 0.5)"/>
</clipPath>
</defs>
</svg>
