<svg width="25" height="25" viewBox="0 0 25 25" fill="none" xmlns="http://www.w3.org/2000/svg">
<path d="M6.5 2.98242L3.5 6.98242V20.9824C3.5 21.5129 3.71071 22.0216 4.08579 22.3966C4.46086 22.7717 4.96957 22.9824 5.5 22.9824H19.5C20.0304 22.9824 20.5391 22.7717 20.9142 22.3966C21.2893 22.0216 21.5 21.5129 21.5 20.9824V6.98242L18.5 2.98242H6.5Z" stroke="#101010" stroke-width="2" stroke-linecap="round" stroke-linejoin="round"/>
<path d="M3.5 6.98242H21.5" stroke="#101010" stroke-width="2" stroke-linecap="round" stroke-linejoin="round"/>
<path d="M16.5 10.9824C16.5 12.0433 16.0786 13.0607 15.3284 13.8108C14.5783 14.561 13.5609 14.9824 12.5 14.9824C11.4391 14.9824 10.4217 14.561 9.67157 13.8108C8.92143 13.0607 8.5 12.0433 8.5 10.9824" stroke="#101010" stroke-width="2" stroke-linecap="round" stroke-linejoin="round"/>
</svg>
