<svg width="25" height="25" viewBox="0 0 25 25" fill="none" xmlns="http://www.w3.org/2000/svg">
<path d="M6.5 2.96484L3.5 6.96484V20.9648C3.5 21.4953 3.71071 22.004 4.08579 22.3791C4.46086 22.7541 4.96957 22.9648 5.5 22.9648H19.5C20.0304 22.9648 20.5391 22.7541 20.9142 22.3791C21.2893 22.004 21.5 21.4953 21.5 20.9648V6.96484L18.5 2.96484H6.5Z" stroke="#F5F5F5" stroke-width="2" stroke-linecap="round" stroke-linejoin="round"/>
<path d="M3.5 6.96484H21.5" stroke="#F5F5F5" stroke-width="2" stroke-linecap="round" stroke-linejoin="round"/>
<path d="M16.5 10.9648C16.5 12.0257 16.0786 13.0431 15.3284 13.7933C14.5783 14.5434 13.5609 14.9648 12.5 14.9648C11.4391 14.9648 10.4217 14.5434 9.67157 13.7933C8.92143 13.0431 8.5 12.0257 8.5 10.9648" stroke="#F5F5F5" stroke-width="2" stroke-linecap="round" stroke-linejoin="round"/>
</svg>
