<svg width="16" height="17" viewBox="0 0 16 17" fill="none" xmlns="http://www.w3.org/2000/svg">
<path d="M0 1.91421C0 1.03055 0.716345 0.314209 1.6 0.314209H9.6C10.4837 0.314209 11.2 1.03055 11.2 1.91421V5.11421H14.4C15.2837 5.11421 16 5.83055 16 6.71421V14.7142C16 15.5979 15.2837 16.3142 14.4 16.3142H6.4C5.51634 16.3142 4.8 15.5979 4.8 14.7142V11.5142H1.6C0.716344 11.5142 0 10.7979 0 9.91421V1.91421ZM6.4 11.5142V14.7142H14.4V6.71421H11.2V9.91421C11.2 10.7979 10.4837 11.5142 9.6 11.5142H6.4ZM9.6 9.91421V1.91421L1.6 1.91421V9.91421H9.6Z" fill="#A1A6AA"/>
</svg>
