<svg width="20" height="20" viewBox="0 0 20 20" fill="none" xmlns="http://www.w3.org/2000/svg">
<path fill-rule="evenodd" clip-rule="evenodd" d="M9.7002 1.5C10.0939 1.5 10.48 1.60451 10.8213 1.80078L10.8223 1.7998L16.0723 4.7998L16.0752 4.80176C16.3557 4.96375 16.5964 5.18462 16.7832 5.44727C16.8254 5.49062 16.8648 5.53807 16.8965 5.59277C16.9241 5.64049 16.9448 5.69076 16.9609 5.74121C17.1174 6.05318 17.1998 6.39789 17.2002 6.74805V12.749C17.1998 13.1436 17.0959 13.5314 16.8984 13.873C16.701 14.2146 16.4169 14.498 16.0752 14.6953L16.0723 14.6973L10.8223 17.6973L10.8213 17.6963C10.5812 17.8344 10.3185 17.925 10.0469 17.9678C9.94268 18.0226 9.82611 18.0576 9.7002 18.0576C9.57413 18.0576 9.45682 18.0237 9.35254 17.9688C9.08088 17.926 8.81823 17.8345 8.57812 17.6963L3.32812 14.6973L3.3252 14.6953C2.98352 14.498 2.6994 14.2146 2.50195 13.873C2.3045 13.5314 2.2006 13.1436 2.2002 12.749V6.74805L2.20508 6.60059C2.22462 6.30692 2.30359 6.02087 2.43359 5.75684C2.45012 5.70089 2.47244 5.64547 2.50293 5.59277C2.5352 5.53705 2.57503 5.4883 2.61816 5.44434C2.80475 5.18275 3.04552 4.96325 3.3252 4.80176L3.32812 4.7998L8.57812 1.7998C8.91956 1.60326 9.30619 1.5 9.7002 1.5ZM3.7002 12.748L3.70703 12.8457C3.71993 12.9428 3.75148 13.0367 3.80078 13.1221C3.86602 13.2349 3.95971 13.3288 4.07227 13.3945L8.9502 16.1816V10.1885L3.7002 7.15234V12.748ZM10.4502 10.1875V16.1816L15.3281 13.3945C15.4407 13.3288 15.5344 13.2349 15.5996 13.1221C15.6653 13.0083 15.7 12.8794 15.7002 12.748V7.15137L10.4502 10.1875ZM9.7002 3C9.56854 3 9.43921 3.03476 9.3252 3.10059L9.32227 3.10254L4.47949 5.86914L9.69922 8.88965L14.9199 5.86914L10.0781 3.10254L10.0752 3.10059C9.96118 3.03476 9.83185 3 9.7002 3Z" fill="#D1D9E0"/>
</svg>
