<svg width="20" height="20" viewBox="0 0 20 20" fill="none" xmlns="http://www.w3.org/2000/svg">
<path d="M9.36549 5.56511C9.71541 5.56511 9.99909 5.84878 9.99909 6.19871C9.99909 6.54863 9.71541 6.83231 9.36549 6.83231H5.56389C5.39584 6.83231 5.23473 6.89911 5.11591 7.01793C4.99709 7.13675 4.93029 7.29787 4.93029 7.46591V14.4355C4.93029 14.6035 4.99709 14.7647 5.11591 14.8835C5.23473 15.0023 5.39585 15.0691 5.56389 15.0691H12.5335C12.7015 15.0691 12.8626 15.0023 12.9815 14.8835C13.1003 14.7647 13.1671 14.6035 13.1671 14.4355V10.6339C13.1671 10.284 13.4508 10.0003 13.8007 10.0003C14.1506 10.0003 14.4343 10.284 14.4343 10.6339V14.4355C14.4343 14.9396 14.2339 15.423 13.8774 15.7794C13.5209 16.1359 13.0376 16.3363 12.5335 16.3363H5.56389C5.05976 16.3363 4.57643 16.1359 4.21996 15.7794C3.86349 15.423 3.66309 14.9396 3.66309 14.4355V7.46591C3.66309 6.96178 3.86349 6.47845 4.21996 6.12198C4.57643 5.76551 5.05976 5.56511 5.56389 5.56511H9.36549ZM15.7015 3.66431C15.7371 3.66431 15.772 3.66793 15.8061 3.67359C15.8116 3.67451 15.8172 3.67499 15.8228 3.67606L15.8289 3.6773C15.8352 3.67858 15.8413 3.68017 15.8475 3.68163C15.8605 3.68471 15.8736 3.68762 15.8865 3.69153C15.9174 3.70095 15.9469 3.7136 15.9756 3.72742C15.9845 3.73169 15.9935 3.73571 16.0022 3.74041C16.0945 3.79031 16.173 3.86234 16.2305 3.94955C16.2462 3.9733 16.2598 3.99797 16.272 4.02318C16.2858 4.05181 16.2978 4.08146 16.3072 4.11228C16.3112 4.12514 16.3141 4.13823 16.3171 4.15126C16.3283 4.19839 16.3351 4.24736 16.3351 4.29791V8.09951C16.3351 8.44943 16.0514 8.73311 15.7015 8.73311C15.3516 8.73311 15.0679 8.44943 15.0679 8.09951V5.82746L9.17986 11.7155C8.93243 11.9629 8.53135 11.9629 8.28391 11.7155C8.03648 11.468 8.03648 11.067 8.28391 10.8195L14.1719 4.93151H11.8999C11.55 4.93151 11.2663 4.64783 11.2663 4.29791C11.2663 3.94798 11.55 3.66431 11.8999 3.66431H15.7015Z" fill="#D1D9E0"/>
</svg>
