<svg width="20" height="20" viewBox="0 0 20 20" fill="none" xmlns="http://www.w3.org/2000/svg">
<path d="M9.2 14H10.8V9.2H9.2V14ZM10 7.6C10.2267 7.6 10.4168 7.5232 10.5704 7.3696C10.724 7.216 10.8005 7.02613 10.8 6.8C10.7995 6.57387 10.7227 6.384 10.5696 6.2304C10.4165 6.0768 10.2267 6 10 6C9.77333 6 9.58346 6.0768 9.4304 6.2304C9.27733 6.384 9.20053 6.57387 9.2 6.8C9.19946 7.02613 9.27626 7.21627 9.4304 7.3704C9.58453 7.52453 9.7744 7.60107 10 7.6ZM10 18C8.89333 18 7.85333 17.7899 6.88 17.3696C5.90667 16.9493 5.06 16.3795 4.34 15.66C3.62 14.9405 3.05013 14.0939 2.6304 13.12C2.21067 12.1461 2.00053 11.1061 2 10C1.99947 8.89386 2.2096 7.85387 2.6304 6.88C3.0512 5.90613 3.62107 5.05947 4.34 4.34C5.05893 3.62053 5.9056 3.05067 6.88 2.6304C7.8544 2.21013 8.8944 2 10 2C11.1056 2 12.1456 2.21013 13.12 2.6304C14.0944 3.05067 14.9411 3.62053 15.66 4.34C16.3789 5.05947 16.9491 5.90613 17.3704 6.88C17.7917 7.85387 18.0016 8.89386 18 10C17.9984 11.1061 17.7883 12.1461 17.3696 13.12C16.9509 14.0939 16.3811 14.9405 15.66 15.66C14.9389 16.3795 14.0923 16.9496 13.12 17.3704C12.1477 17.7912 11.1077 18.0011 10 18Z" fill="#757C82"/>
</svg>
