<svg width="17" height="18" viewBox="0 0 17 18" fill="none" xmlns="http://www.w3.org/2000/svg">
<path d="M8.49989 3.90512C8.92666 3.90512 9.27262 4.25108 9.27262 4.67785V8.83654L11.9364 10.1684C12.3181 10.3593 12.4729 10.8236 12.282 11.2053C12.0912 11.587 11.6269 11.7417 11.2452 11.5509L8.15428 10.0054C7.89249 9.87454 7.72717 9.6069 7.72717 9.31421V4.67785C7.72717 4.25108 8.07313 3.90512 8.49989 3.90512Z" fill="#A1A6AA"/>
<path fill-rule="evenodd" clip-rule="evenodd" d="M8.49989 0.814209C13.1943 0.814209 16.9999 4.61979 16.9999 9.31421C16.9999 14.0086 13.1943 17.8142 8.49989 17.8142C3.80547 17.8142 -0.000106812 14.0086 -0.000106812 9.31421C-0.000106812 4.61979 3.80547 0.814209 8.49989 0.814209ZM8.49989 2.35966C4.659 2.35966 1.54535 5.47332 1.54535 9.31421C1.54535 13.1551 4.659 16.2688 8.49989 16.2688C12.3408 16.2688 15.4544 13.1551 15.4544 9.31421C15.4544 5.47332 12.3408 2.35966 8.49989 2.35966Z" fill="#A1A6AA"/>
</svg>
