<svg width="32" height="32" viewBox="0 0 32 32" fill="none" xmlns="http://www.w3.org/2000/svg">
<g clip-path="url(#clip0_10642_3038)">
<circle cx="16" cy="16" r="16" fill="url(#paint0_linear_10642_3038)"/>
<path d="M7.0907 19.2421L10.1389 12.1861C10.3016 11.8094 10.6727 11.5655 11.0831 11.5655H12.9367C13.3514 11.5655 13.7255 11.3165 13.8855 10.9339L14.9979 8.27557C15.158 7.89304 15.5321 7.64404 15.9468 7.64404H20.4989C20.6826 7.64404 20.8071 7.83118 20.736 8.00063L19.4787 10.999C19.3184 11.3811 18.9445 11.6298 18.5301 11.6298H14.6498C14.0818 11.6298 13.6213 12.0903 13.6213 12.6583V17.1583C13.6213 17.7264 14.0818 18.1869 14.6498 18.1869H17.1393C17.345 18.1869 17.531 18.0643 17.612 17.8752L17.9827 17.0103C18.1448 16.6321 18.5166 16.3869 18.9281 16.3869H23.3889C23.5734 16.3869 23.6978 16.5755 23.6253 16.7451L20.438 24.2022C20.3975 24.2969 20.3045 24.3583 20.2015 24.3583H13.9757C13.5654 24.3583 13.1944 24.1146 13.0316 23.738L11.511 20.2215C11.3481 19.845 10.9771 19.6012 10.5669 19.6012H7.32676C7.14183 19.6012 7.01736 19.4118 7.0907 19.2421Z" fill="#FF6A2F"/>
</g>
<defs>
<linearGradient id="paint0_linear_10642_3038" x1="16" y1="0" x2="16" y2="90" gradientUnits="userSpaceOnUse">
<stop stop-color="#101010"/>
<stop offset="1" stop-color="#C7430F"/>
</linearGradient>
<clipPath id="clip0_10642_3038">
<rect width="32" height="32" fill="white"/>
</clipPath>
</defs>
</svg>
