<svg width="132" height="32" viewBox="0 0 132 32" fill="none" xmlns="http://www.w3.org/2000/svg">
<g clip-path="url(#clip0_54_9328)">
<path d="M79.0315 19.5124C79.3202 19.5124 79.591 19.5699 79.8437 19.685C80.1084 19.8 80.337 19.9598 80.5295 20.1644C80.7221 20.3689 80.8725 20.6119 80.9808 20.8931C81.0891 21.1615 81.1433 21.4492 81.1433 21.756C81.1433 22.0628 81.0891 22.3568 80.9808 22.638C80.8725 22.9064 80.7221 23.1429 80.5295 23.3474C80.337 23.5519 80.1084 23.7117 79.8437 23.8268C79.591 23.9418 79.3202 23.9994 79.0315 23.9994C78.7426 23.9994 78.4657 23.9418 78.201 23.8268C77.9483 23.7117 77.7257 23.5519 77.5332 23.3474C77.3406 23.1429 77.1902 22.9064 77.0819 22.638C76.9736 22.3568 76.9194 22.0628 76.9194 21.756C76.9194 21.4492 76.9736 21.1615 77.0819 20.8931C77.1902 20.6119 77.3406 20.3689 77.5332 20.1644C77.7257 19.9598 77.9483 19.8 78.201 19.685C78.4657 19.5699 78.7426 19.5124 79.0315 19.5124ZM55.563 19.301C55.563 20.5155 56.1166 21.1227 57.2238 21.1227C58.3309 21.1227 58.8846 20.5155 58.8846 19.301V13.7593H62.1517V19.9722C62.1517 21.3017 61.7365 22.2989 60.9062 22.9637C60.0879 23.6284 58.8604 23.9607 57.2238 23.9607C55.5872 23.9607 54.3537 23.6284 53.5234 22.9637C52.705 22.2989 52.2958 21.3017 52.2958 19.9722V13.7593H55.563V19.301ZM126.757 13.395C127.539 13.395 128.243 13.5228 128.869 13.7785C129.494 14.0214 130.024 14.3793 130.457 14.8523C130.89 15.3252 131.221 15.9071 131.45 16.5974C131.679 17.2749 131.793 18.0419 131.793 18.8984V19.2628H124.915C124.915 20.7584 125.577 21.5062 126.901 21.5062C127.611 21.5062 128.147 21.1995 128.508 20.5859H131.666C131.029 22.8358 129.434 23.9607 126.883 23.9607C126.101 23.9607 125.385 23.8392 124.735 23.5963C124.085 23.3407 123.525 22.9828 123.056 22.5226C122.599 22.0624 122.244 21.5127 121.991 20.8735C121.738 20.2344 121.612 19.5184 121.612 18.7258C121.612 17.9076 121.732 17.1726 121.973 16.5206C122.214 15.8559 122.557 15.2933 123.002 14.8331C123.447 14.373 123.983 14.0214 124.608 13.7785C125.246 13.5228 125.962 13.395 126.757 13.395ZM101.66 13.4528C102.815 13.4528 103.772 13.8812 104.53 14.7377V13.7596H107.815V23.5968H104.53V22.5037C103.832 23.4369 102.887 23.9035 101.696 23.9035C101.022 23.9035 100.402 23.7757 99.8363 23.52C99.2707 23.2516 98.7774 22.8808 98.3562 22.4078C97.9351 21.9348 97.6041 21.3788 97.3634 20.7396C97.1348 20.1005 97.0204 19.4037 97.0204 18.6495C97.0204 17.9464 97.1348 17.2816 97.3634 16.6552C97.5921 16.016 97.9111 15.4598 98.3202 14.9868C98.7294 14.5139 99.2167 14.143 99.7823 13.8746C100.348 13.5934 100.974 13.4528 101.66 13.4528ZM43.2672 14.7372C44.0373 13.8807 45.0002 13.4526 46.1555 13.4526C46.8414 13.4526 47.4672 13.5931 48.0328 13.8744C48.6104 14.1428 49.0978 14.5136 49.4949 14.9866C49.904 15.4468 50.223 15.9965 50.4517 16.6356C50.6803 17.262 50.7944 17.9332 50.7945 18.649C50.7945 19.3777 50.6741 20.0617 50.4334 20.7009C50.2048 21.34 49.88 21.8961 49.4589 22.3691C49.0377 22.8421 48.5382 23.2192 47.9606 23.5005C47.395 23.7689 46.7811 23.9031 46.1193 23.9031C44.9159 23.9031 43.9651 23.4366 43.2672 22.5034V23.5963H40V7.68066H43.2672V14.7372ZM120.111 23.5963H116.826V22.5034C116.128 23.4366 115.183 23.9031 113.991 23.9031C113.318 23.9031 112.698 23.7689 112.132 23.5005C111.567 23.232 111.073 22.8614 110.652 22.3884C110.231 21.9154 109.9 21.3592 109.659 20.7201C109.431 20.0809 109.316 19.3905 109.316 18.649C109.316 17.946 109.425 17.2812 109.641 16.6548C109.87 16.0156 110.189 15.4596 110.598 14.9866C111.007 14.5136 111.494 14.1428 112.06 13.8744C112.638 13.5931 113.27 13.4526 113.955 13.4526C115.111 13.4526 116.067 13.8807 116.826 14.7372V7.68066H120.111V23.5963ZM70.3163 10.6844H68.0111V13.8011H71.1546V11.3522C71.1546 9.38499 72.6558 7.79024 74.5077 7.79024H76.6034V10.6844H74.2981V13.8011H76.6034V16.6952H74.2981V23.5966H71.1546V16.6952H68.0111V23.5966H64.8675V16.6952H63.4005V13.8011H64.8675V11.3522C64.8675 9.38499 66.3688 7.79024 68.2206 7.79024H70.3163V10.6844ZM86.5017 13.7596H88.3608V16.655H86.5017V23.5966H83.2343V16.655H82.1512V13.7596H83.2343V10.8065H86.5017V13.7596ZM95.8166 13.5485C95.9249 13.5485 96.0453 13.5612 96.1777 13.5867V16.9041C95.7444 16.674 95.275 16.5591 94.7696 16.5591C94.0115 16.5591 93.4399 16.8019 93.0548 17.2876C92.6817 17.7606 92.4951 18.4574 92.495 19.3778V23.5966H89.2279V13.7593H92.495V15.3701C92.844 14.7821 93.2714 14.3347 93.7768 14.0278C94.2822 13.7083 94.872 13.5485 95.5459 13.5485H95.8166ZM102.526 16.4441C102.225 16.4441 101.942 16.5017 101.678 16.6167C101.425 16.7318 101.202 16.8916 101.01 17.0961C100.829 17.3006 100.685 17.5373 100.577 17.8057C100.468 18.0614 100.414 18.3427 100.414 18.6495C100.414 18.969 100.468 19.2694 100.577 19.5506C100.685 19.8191 100.829 20.0557 101.01 20.2602C101.202 20.4647 101.425 20.6246 101.678 20.7396C101.942 20.8547 102.225 20.912 102.526 20.912C102.815 20.912 103.086 20.8547 103.338 20.7396C103.603 20.6246 103.826 20.4647 104.006 20.2602C104.199 20.0557 104.349 19.8191 104.457 19.5506C104.578 19.2822 104.638 18.9945 104.638 18.6877C104.638 18.3809 104.578 18.0933 104.457 17.8249C104.349 17.5436 104.199 17.3006 104.006 17.0961C103.826 16.8916 103.603 16.7318 103.338 16.6167C103.086 16.5017 102.815 16.4441 102.526 16.4441ZM45.271 16.4439C44.9821 16.4439 44.7114 16.5015 44.4587 16.6165C44.206 16.7316 43.9832 16.8913 43.7907 17.0959C43.6102 17.3004 43.4597 17.5434 43.3394 17.8246C43.2311 18.0931 43.1769 18.3807 43.1769 18.6875C43.1769 18.9943 43.2311 19.282 43.3394 19.5504C43.4477 19.8188 43.5982 20.0553 43.7907 20.2598C43.9832 20.4516 44.206 20.6113 44.4587 20.7392C44.7234 20.8542 45.0002 20.9118 45.289 20.9118C45.5778 20.9118 45.8485 20.8542 46.1012 20.7392C46.354 20.6241 46.5705 20.4643 46.751 20.2598C46.9436 20.0553 47.094 19.8188 47.2023 19.5504C47.3226 19.282 47.3828 19.0007 47.3828 18.7067C47.3828 18.3999 47.3288 18.1122 47.2205 17.8438C47.1122 17.5625 46.9618 17.3195 46.7692 17.115C46.5767 16.9105 46.354 16.7507 46.1012 16.6356C45.8485 16.5078 45.5718 16.4439 45.271 16.4439ZM114.822 16.4439C114.533 16.4439 114.256 16.5015 113.991 16.6165C113.739 16.7316 113.516 16.8914 113.324 17.0959C113.143 17.3004 112.993 17.5369 112.872 17.8053C112.764 18.0609 112.71 18.3422 112.71 18.649C112.71 18.9686 112.764 19.2692 112.872 19.5504C112.981 19.8188 113.125 20.0553 113.306 20.2598C113.498 20.4643 113.721 20.6241 113.973 20.7392C114.238 20.8542 114.521 20.9118 114.822 20.9118C115.111 20.9118 115.382 20.8542 115.634 20.7392C115.899 20.6241 116.122 20.4643 116.302 20.2598C116.495 20.0553 116.645 19.8188 116.753 19.5504C116.874 19.282 116.934 18.9943 116.934 18.6875C116.934 18.3807 116.874 18.0931 116.753 17.8246C116.645 17.5434 116.495 17.3004 116.302 17.0959C116.122 16.8914 115.899 16.7316 115.634 16.6165C115.382 16.5015 115.111 16.4439 114.822 16.4439ZM126.847 15.6386C126.341 15.6386 125.926 15.7792 125.601 16.0604C125.289 16.3416 125.09 16.7379 125.006 17.2492H128.742C128.634 16.7634 128.411 16.3735 128.074 16.0795C127.737 15.7855 127.328 15.6386 126.847 15.6386Z" fill="#A1A6AA"/>
<g clip-path="url(#clip1_54_9328)">
<circle cx="15.5996" cy="16" r="16" fill="#1B1C1D"/>
<path d="M6.69031 19.2421L9.73847 12.1861C9.90122 11.8094 10.2723 11.5655 10.6827 11.5655H12.5363C12.951 11.5655 13.3251 11.3165 13.4851 10.9339L14.5975 8.27557C14.7576 7.89304 15.1317 7.64404 15.5464 7.64404H20.0985C20.2822 7.64404 20.4067 7.83118 20.3356 8.00063L19.0783 10.999C18.918 11.3811 18.5441 11.6298 18.1297 11.6298H14.2495C13.6814 11.6298 13.2209 12.0903 13.2209 12.6583V17.1583C13.2209 17.7264 13.6814 18.1869 14.2495 18.1869H16.7389C16.9446 18.1869 17.1306 18.0643 17.2116 17.8752L17.5823 17.0103C17.7444 16.6321 18.1162 16.3869 18.5277 16.3869H22.9885C23.173 16.3869 23.2974 16.5755 23.2249 16.7451L20.0376 24.2022C19.9971 24.2969 19.9041 24.3583 19.8011 24.3583H13.5753C13.1651 24.3583 12.794 24.1146 12.6312 23.738L11.1106 20.2215C10.9477 19.845 10.5767 19.6012 10.1665 19.6012H6.92637C6.74144 19.6012 6.61697 19.4118 6.69031 19.2421Z" fill="#A1A6AA"/>
</g>
</g>
<defs>
<clipPath id="clip0_54_9328">
<rect width="132" height="32" fill="white"/>
</clipPath>
<clipPath id="clip1_54_9328">
<rect width="32" height="32" fill="white" transform="translate(-0.400391)"/>
</clipPath>
</defs>
</svg>
