<svg width="20" height="20" viewBox="0 0 20 20" fill="none" xmlns="http://www.w3.org/2000/svg">
<path fill-rule="evenodd" clip-rule="evenodd" d="M8.86686 16.6667C8.86686 16.2064 8.49377 15.8333 8.03353 15.8333H3.86686V4.16667H8.03353C8.49377 4.16667 8.86686 3.79357 8.86686 3.33333C8.86686 2.87309 8.49377 2.5 8.03353 2.5H3.86686C2.94639 2.5 2.2002 3.24619 2.2002 4.16667V15.8333C2.2002 16.7538 2.94639 17.5 3.86686 17.5H8.03353C8.49377 17.5 8.86686 17.1269 8.86686 16.6667Z" fill="#F65555"/>
<path d="M17.7949 10.5838C17.8721 10.5052 17.9306 10.415 17.9703 10.319C18.0107 10.2215 18.0332 10.1146 18.0335 10.0025L18.0335 10L18.0335 9.9975C18.0329 9.78507 17.9515 9.57283 17.7895 9.41074L14.4561 6.07741C14.1307 5.75197 13.603 5.75197 13.2776 6.07741C12.9522 6.40285 12.9522 6.93049 13.2776 7.25592L15.1884 9.16667H7.2002C6.73996 9.16667 6.36686 9.53976 6.36686 10C6.36686 10.4602 6.73996 10.8333 7.2002 10.8333H15.1884L13.2776 12.7441C12.9522 13.0695 12.9522 13.5972 13.2776 13.9226C13.603 14.248 14.1307 14.248 14.4561 13.9226L17.7889 10.5898L17.7949 10.5838Z" fill="#F65555"/>
</svg>
