<svg width="22" height="22" viewBox="0 0 22 22" fill="none" xmlns="http://www.w3.org/2000/svg">
<path d="M11 2.2C6.13989 2.2 2.2 6.13989 2.2 11C2.2 15.8601 6.13989 19.8 11 19.8C15.8601 19.8 19.8 15.8601 19.8 11C19.8 6.13989 15.8601 2.2 11 2.2ZM0 11C0 4.92487 4.92487 0 11 0C17.0751 0 22 4.92487 22 11C22 17.0751 17.0751 22 11 22C4.92487 22 0 17.0751 0 11Z" fill="#F65555"/>
<path d="M11 13.2C10.3925 13.2 9.9 12.7075 9.9 12.1L9.9 5.5C9.9 4.89249 10.3925 4.4 11 4.4C11.6075 4.4 12.1 4.89249 12.1 5.5L12.1 12.1C12.1 12.7075 11.6075 13.2 11 13.2Z" fill="#F65555"/>
<path d="M9.35 15.95C9.35 15.0387 10.0887 14.3 11 14.3C11.9113 14.3 12.65 15.0387 12.65 15.95C12.65 16.8613 11.9113 17.6 11 17.6C10.0887 17.6 9.35 16.8613 9.35 15.95Z" fill="#F65555"/>
</svg>
