<svg width="16" height="16" viewBox="0 0 16 16" fill="none" xmlns="http://www.w3.org/2000/svg">
<path fill-rule="evenodd" clip-rule="evenodd" d="M7.20038 -0.000244141C11.177 -0.000244141 14.4008 3.22348 14.4008 7.20014C14.4008 8.90037 13.8096 10.4615 12.8241 11.6933L15.7657 14.6349C16.0781 14.9473 16.0781 15.4538 15.7657 15.7662C15.4532 16.0783 14.9467 16.0785 14.6344 15.7662L11.6928 12.8247C10.4611 13.8097 8.90022 14.4005 7.20038 14.4005C3.22372 14.4005 0 11.1768 0 7.20014C0 3.22348 3.22372 -0.000244141 7.20038 -0.000244141ZM7.20038 1.59984C4.10742 1.59984 1.60008 4.10718 1.60008 7.20014C1.60008 10.2931 4.10742 12.8004 7.20038 12.8004C8.71247 12.8004 10.0836 12.2001 11.0912 11.2261C11.1106 11.2015 11.1318 11.1778 11.1545 11.155C11.1774 11.1322 11.2016 11.1105 11.2264 11.091C12.2004 10.0834 12.8007 8.71223 12.8007 7.20014C12.8007 4.10718 10.2933 1.59984 7.20038 1.59984Z" fill="#A1A6AA"/>
</svg>
