<svg width="20" height="20" viewBox="0 0 20 20" fill="none" xmlns="http://www.w3.org/2000/svg">
<path fill-rule="evenodd" clip-rule="evenodd" d="M2.09382 9.04069C7.01512 6.89654 10.2968 5.48299 11.9387 4.80003C16.6269 2.85004 17.6011 2.5113 18.236 2.50012C18.3757 2.49766 18.6879 2.53227 18.8902 2.69639C19.061 2.83497 19.108 3.02218 19.1305 3.15357C19.1529 3.28496 19.1809 3.58427 19.1587 3.81814C18.9046 6.48753 17.8053 12.9654 17.2461 15.9552C17.0094 17.2203 16.5435 17.6444 16.0924 17.686C15.112 17.7762 14.3676 17.0381 13.4181 16.4157C11.9323 15.4417 11.0929 14.8354 9.65072 13.885C7.98398 12.7866 9.06446 12.1829 10.0143 11.1964C10.2629 10.9382 14.5823 7.00931 14.6659 6.6529C14.6764 6.60832 14.6861 6.44217 14.5874 6.35443C14.4887 6.2667 14.343 6.2967 14.2378 6.32056C14.0888 6.35438 11.7153 7.92324 7.11712 11.0271C6.44339 11.4898 5.83315 11.7152 5.28639 11.7034C4.68363 11.6903 3.52417 11.3626 2.66222 11.0824C1.60502 10.7387 0.764771 10.557 0.837938 9.97338C0.876047 9.66938 1.29467 9.35849 2.09382 9.04069Z" fill="#757C82"/>
</svg>
