<svg width="12" height="15" viewBox="0 0 12 15" fill="none" xmlns="http://www.w3.org/2000/svg">
<path d="M5.36927 8.03875C5.76205 7.71839 6.34107 7.74098 6.70719 8.10711L11.7073 13.1072C12.0976 13.4978 12.0978 14.1309 11.7073 14.5213C11.3168 14.9117 10.6837 14.9116 10.2932 14.5213L6.00014 10.2283L1.70708 14.5213C1.31661 14.9117 0.683516 14.9116 0.292983 14.5213C-0.0975345 14.1308 -0.0975024 13.4978 0.292983 13.1072L5.2931 8.10711L5.36927 8.03875Z" fill="#A1A6AA"/>
<path d="M5.36927 1.03859C5.76205 0.718231 6.34107 0.740826 6.70719 1.10695L11.7073 6.10706C12.0976 6.49761 12.0978 7.13069 11.7073 7.52116C11.3168 7.91158 10.6837 7.91148 10.2932 7.52116L6.00014 3.22809L1.70708 7.52116C1.31661 7.91158 0.683516 7.91148 0.292983 7.52116C-0.0975345 7.13064 -0.0975024 6.4976 0.292983 6.10706L5.2931 1.10695L5.36927 1.03859Z" fill="#A1A6AA"/>
</svg>
