<svg width="30" height="30" viewBox="0 0 30 30" fill="none" xmlns="http://www.w3.org/2000/svg">
<path fill-rule="evenodd" clip-rule="evenodd" d="M15.5729 4.80533C14.6699 5.45697 13.9347 6.31374 13.4276 7.30512C12.9205 8.29651 12.6562 9.39414 12.6563 10.5077V10.5527C12.6619 11.3964 12.8166 12.2064 13.0937 12.956C13.3187 13.5578 12.8068 14.2356 12.2358 13.9403C11.1739 13.3904 10.2698 12.5787 9.60897 11.582C9.32491 11.1545 8.69772 11.0716 8.41647 11.5005C7.48904 12.9125 7.00681 14.5703 7.0322 16.2595C7.0576 17.9486 7.58945 19.5912 8.55891 20.9747C9.52837 22.3581 10.8908 23.4187 12.4698 24.0192C14.0488 24.6196 15.7717 24.7322 17.4155 24.3425C19.0592 23.9527 20.5481 23.0785 21.6894 21.833C22.8307 20.5875 23.5719 19.0281 23.817 17.3567C24.0621 15.6852 23.7998 13.9787 23.064 12.458C22.3283 10.9373 21.153 9.67244 19.6904 8.8272L19.6847 8.81736C18.2729 8.00414 17.1888 6.72411 16.6191 5.19767C16.456 4.76174 15.9483 4.53533 15.5729 4.80533ZM16.6697 13.4917C17.333 13.6884 17.9377 14.0451 18.4307 14.5305C18.9236 15.0158 19.2897 15.6149 19.4967 16.275C19.7037 16.9351 19.7452 17.636 19.6177 18.3159C19.4901 18.9958 19.1974 19.6339 18.7652 20.1741C18.333 20.7143 17.7747 21.14 17.1393 21.4136C16.504 21.6873 15.8111 21.8006 15.1217 21.7435C14.4322 21.6864 13.7674 21.4607 13.1857 21.0863C12.604 20.7118 12.1233 20.2002 11.7858 19.5963C11.4976 19.083 12.0882 18.6203 12.6577 18.7666C13.52 18.9889 14.4227 19.0034 15.2916 18.8088C15.6966 18.7174 15.8724 18.2659 15.743 17.8722C15.5607 17.3099 15.4682 16.7224 15.4688 16.1313C15.4688 15.3086 15.646 14.5281 15.9624 13.8236C16.0199 13.6919 16.1235 13.5857 16.2537 13.5248C16.3839 13.464 16.5318 13.4513 16.6697 13.4917Z" fill="#F5F5F5"/>
</svg>
