<svg width="12" height="12" viewBox="0 0 12 12" fill="none" xmlns="http://www.w3.org/2000/svg">
<path d="M6.10355 1.14645C6.29882 1.34171 6.29882 1.65829 6.10355 1.85355L5.45711 2.5H6.25C8.57614 2.5 10.5 4.42386 10.5 6.75C10.5 9.07614 8.57614 11 6.25 11C3.92386 11 2 9.07614 2 6.75C2 6.47386 2.22386 6.25 2.5 6.25C2.77614 6.25 3 6.47386 3 6.75C3 8.52386 4.47614 10 6.25 10C8.02386 10 9.5 8.52386 9.5 6.75C9.5 4.97614 8.02386 3.5 6.25 3.5H5.45711L6.10355 4.14645C6.29882 4.34171 6.29882 4.65829 6.10355 4.85355C5.90829 5.04882 5.59171 5.04882 5.39645 4.85355L3.89645 3.35355C3.70118 3.15829 3.70118 2.84171 3.89645 2.64645L5.39645 1.14645C5.59171 0.951184 5.90829 0.951184 6.10355 1.14645Z" fill="(current)"/>
</svg>
