<svg width="20" height="20" viewBox="0 0 20 20" fill="none" xmlns="http://www.w3.org/2000/svg">
<path d="M19 12C19.5523 12 20 12.4477 20 13V17C20 17.7957 19.6837 18.5585 19.1211 19.1211C18.5585 19.6837 17.7957 20 17 20H3C2.20435 20 1.44151 19.6837 0.878906 19.1211C0.316297 18.5585 0 17.7957 0 17V13C0 12.4477 0.447715 12 1 12C1.55228 12 2 12.4477 2 13V17L2.00488 17.0986C2.02757 17.3276 2.12883 17.5429 2.29297 17.707C2.48051 17.8946 2.73478 18 3 18H17C17.2652 18 17.5195 17.8946 17.707 17.707C17.8946 17.5195 18 17.2652 18 17V13C18 12.4477 18.4477 12 19 12Z" fill="#757C82"/>
<path d="M10.0205 0.000976562C10.0381 0.00132952 10.0557 0.00165285 10.0732 0.00292969C10.0909 0.00421139 10.1085 0.00562125 10.126 0.0078125C10.143 0.00995936 10.1598 0.0135773 10.1768 0.0166016C10.1865 0.0183462 10.1964 0.0194581 10.2061 0.0214844C10.231 0.0267048 10.2557 0.0328987 10.2803 0.0400391C10.2881 0.0423196 10.296 0.0444096 10.3037 0.046875C10.3159 0.0507356 10.3278 0.0552334 10.3398 0.0595703C10.3752 0.0723356 10.409 0.0879899 10.4424 0.104492C10.4746 0.120428 10.5064 0.137597 10.5371 0.157227C10.5449 0.162189 10.5529 0.166706 10.5605 0.171875C10.6121 0.206872 10.6613 0.247267 10.707 0.292969L15.707 5.29297C16.0974 5.68351 16.0975 6.31656 15.707 6.70703C15.3166 7.09742 14.6835 7.09737 14.293 6.70703L11 3.41406V13C11 13.5523 10.5523 14 10 14C9.44771 14 9 13.5523 9 13V3.41406L5.70703 6.70703C5.31655 7.09742 4.68348 7.09737 4.29297 6.70703C3.90247 6.31653 3.90252 5.6835 4.29297 5.29297L9.29297 0.292969C9.33823 0.247704 9.3872 0.205877 9.44043 0.169922C9.48044 0.142872 9.52274 0.120236 9.56543 0.0996094C9.62163 0.072433 9.68073 0.0505437 9.74219 0.0341797C9.75876 0.0297636 9.77525 0.0250344 9.79199 0.0214844C9.80296 0.0191644 9.8141 0.0175822 9.8252 0.015625C9.84271 0.0125219 9.8603 0.00997703 9.87793 0.0078125C9.8957 0.00564917 9.9136 0.00414849 9.93164 0.00292969C9.94758 0.00183695 9.96352 0.00130822 9.97949 0.000976562C9.98632 0.000839171 9.99314 0 10 0C10.0069 0 10.0137 0.000839171 10.0205 0.000976562Z" fill="#757C82"/>
</svg>
