<svg width="19" height="19" viewBox="0 0 19 19" fill="none" xmlns="http://www.w3.org/2000/svg">
<path d="M9.83301 0.0144043C14.8771 0.0144043 18.9666 4.10317 18.9668 9.14722C18.9668 14.1914 14.8772 18.281 9.83301 18.281C4.78896 18.2808 0.700195 14.1913 0.700195 9.14722C0.700371 4.10327 4.78906 0.01458 9.83301 0.0144043ZM2.34277 9.948C2.67811 13.1227 4.98505 15.7079 8.0166 16.4587C6.71298 14.5265 5.9266 12.285 5.74219 9.948H2.34277ZM13.9248 9.948C13.7404 12.2853 12.9524 14.5263 11.6484 16.4587C14.6808 15.7084 16.9888 13.1233 17.3242 9.948H13.9248ZM7.34766 9.948C7.55304 12.2412 8.41621 14.4249 9.83301 16.238C11.2499 14.4249 12.113 12.2414 12.3184 9.948H7.34766ZM11.6494 1.83569C12.9534 3.76824 13.7404 6.00998 13.9248 8.34741H17.3242C16.989 5.17224 14.6815 2.58629 11.6494 1.83569ZM9.83301 2.05542C8.41567 3.86882 7.55302 6.05362 7.34766 8.34741H12.3184C12.113 6.05351 11.2505 3.86887 9.83301 2.05542ZM8.01562 1.83569C4.98435 2.58678 2.67796 5.17279 2.34277 8.34741H5.74219C5.92655 6.0103 6.71194 3.76806 8.01562 1.83569Z" fill="#A1A6AA"/>
</svg>
